<?xml version="1.0" encoding="UTF-8"?>
<svg width="71px" height="24px" viewBox="0 0 71 24" version="1.1" xmlns="http://www.w3.org/2000/svg" xmlns:xlink="http://www.w3.org/1999/xlink">
    <!-- Generator: Sketch 51.1 (57501) - http://www.bohemiancoding.com/sketch -->
    <title>深知</title>
    <desc>Created with Sketch.</desc>
    <defs>
        <linearGradient x1="0%" y1="52.3928852%" x2="100%" y2="73.7732573%" id="linearGradient-1">
            <stop stop-color="#0053CD" offset="0%"></stop>
            <stop stop-color="#2684FF" offset="100%"></stop>
        </linearGradient>
        <linearGradient x1="0%" y1="38.5366996%" x2="100%" y2="38.5367006%" id="linearGradient-2">
            <stop stop-color="#0053CD" offset="0%"></stop>
            <stop stop-color="#2684FF" offset="100%"></stop>
        </linearGradient>
        <linearGradient x1="0%" y1="0%" x2="100%" y2="66.550293%" id="linearGradient-3">
            <stop stop-color="#0053CD" offset="0%"></stop>
            <stop stop-color="#2684FF" offset="100%"></stop>
        </linearGradient>
    </defs>
    <g id="logo" stroke="none" stroke-width="1" fill="none" fill-rule="evenodd">
        <g id="Artboard" transform="translate(-507.000000, -424.000000)">
            <g id="深知" transform="translate(507.000000, 424.000000)">
                <path d="M45.414,6.39 L46.836,6.948 C46.026,8.604 44.964,9.864 43.632,10.728 L42.39,9.666 C43.758,8.838 44.766,7.758 45.414,6.39 Z M49.05,6.264 C50.4,7.56 51.426,8.712 52.146,9.702 L50.778,10.638 C50.058,9.558 49.05,8.352 47.79,7.056 L49.05,6.264 Z M38.394,3.438 C39.708,4.338 40.824,5.256 41.742,6.156 L40.59,7.308 C39.798,6.444 38.682,5.526 37.242,4.554 L38.394,3.438 Z M37.962,7.65 C39.222,8.568 40.266,9.486 41.13,10.404 L39.996,11.538 C39.24,10.674 38.178,9.756 36.828,8.784 L37.962,7.65 Z M40.212,12.744 L41.616,13.302 C40.752,15.57 39.78,17.694 38.7,19.674 L37.116,18.972 C38.304,16.956 39.348,14.868 40.212,12.744 Z M45.162,13.32 L42.066,13.32 L42.066,11.754 L46.602,11.754 L46.602,9.936 L48.258,9.936 L48.258,11.754 L52.83,11.754 L52.83,13.32 L49.68,13.32 C50.472,14.796 51.714,16.11 53.442,17.298 L52.362,18.648 C50.526,17.064 49.23,15.282 48.456,13.32 L48.258,13.32 L48.258,19.782 L46.602,19.782 L46.602,13.32 L46.422,13.32 C45.486,15.516 43.974,17.352 41.886,18.81 L41.004,17.37 C42.876,16.29 44.262,14.94 45.162,13.32 Z M52.56,3.852 L52.56,7.398 L50.94,7.398 L50.94,5.4 L43.92,5.4 L43.92,7.47 L42.318,7.47 L42.318,3.852 L52.56,3.852 Z M70.614,5.004 L70.614,19.044 L68.958,19.044 L68.958,18.018 L65.808,18.018 L65.808,19.062 L64.152,19.062 L64.152,5.004 L70.614,5.004 Z M65.808,16.416 L68.958,16.416 L68.958,6.606 L65.808,6.606 L65.808,16.416 Z M57.69,7.146 C57.276,8.046 56.808,8.874 56.304,9.63 L54.81,8.676 C55.962,6.984 56.79,5.166 57.276,3.222 L58.968,3.582 C58.788,4.266 58.572,4.896 58.356,5.508 L63.27,5.508 L63.27,7.146 L60.822,7.146 C60.786,8.262 60.732,9.306 60.624,10.26 L63.432,10.26 L63.432,11.898 L60.39,11.898 C60.318,12.294 60.228,12.69 60.156,13.05 C61.254,14.166 62.37,15.408 63.522,16.776 L62.478,18.36 C61.362,16.776 60.426,15.534 59.67,14.634 C58.914,16.524 57.636,18.126 55.8,19.422 L54.684,18.054 C56.556,16.668 57.78,14.976 58.374,12.96 C58.446,12.618 58.536,12.258 58.608,11.898 L55.062,11.898 L55.062,10.26 L58.86,10.26 C58.968,9.306 59.022,8.262 59.058,7.146 L57.69,7.146 Z" fill="#3A416F"></path>
                <g id="Group-14">
                    <rect id="Rectangle-Copy-13" fill-opacity="0" fill="#FFFFFF" fill-rule="nonzero" x="0" y="0" width="24" height="24"></rect>
                    <g id="深知-copy">
                        <g id="Group-7">
                            <path d="M21.2,12.075 L24,15.75 L12,24 L0,15.75 L2.8,12.075 L12,18.4 L21.2,12.075 Z" id="Combined-Shape" fill="#2684FF"></path>
                            <path d="M12,24 L12,18.4 L21.2,12.075 L24,15.75 L12,24 Z" id="Combined-Shape" fill="url(#linearGradient-1)"></path>
                            <path d="M17.2,6.925 L20,10.6 L12,16.1 L4,10.6 L6.8,6.925 L12,10.5 L17.2,6.925 Z" id="Combined-Shape" fill="#2684FF"></path>
                            <path d="M12,16.1 L12,10.5 L17.2,6.925 L20,10.6 L12,16.1 Z" id="Combined-Shape" fill="url(#linearGradient-2)"></path>
                            <path d="M16,5.25 L12,8 L8,5.25 L12,0 L16,5.25 Z" id="Combined-Shape" fill="#2684FF"></path>
                            <path d="M12,0 L16,5.25 L12,8 L12,0 Z" id="Combined-Shape" fill="url(#linearGradient-3)"></path>
                        </g>
                    </g>
                </g>
            </g>
        </g>
    </g>
</svg>